PathFileType	4	(x/y/z)	S04_PSF_T12.trc
DataRate	CameraRate	NumFrames	NumMarkers	Units	OrigDataRate	OrigDataStartFrame	OrigNumFrames
240	240	10	51	mm	240	373	426
Frame#	Time	Sternum			R.Acromium			L.Acromium			Top.Head			R.ASIS			L.ASIS			R.PSIS			L.PSIS			R.Great.Tro			L.Great.Tro			R.Iliac.Crest			L.Iliac.Crest			V.Sacral			R.Thigh.Upper.Post			R.Thigh.Lower.Ant			R.Thigh.Lower.Post			R.Thigh.Upper.Ant			R.Knee.Lat			R.Knee.Med			R.Shank.Upper.Post			R.Shank.Lower.Ant			R.Shank.Lower.Post			R.Shank.Upper.Ant			R.Ankle.Lat			R.Ankle.Med			R.Heel.Upper			R.Heel.Med			R.Heel.Lat			R.Toe.Lat			R.Toe.Med			R.Toe.Tip			L.Thigh.Upper.Post			L.Thigh.Lower.Ant			L.Thigh.Lower.Post			L.Thigh.Upper.Ant			L.Knee.Lat			L.Knee.Med			L.Shank.Upper.Post			L.Shank.Lower.Ant			L.Shank.Lower.Post			L.Shank.Upper.Ant			L.Ankle.Lat			L.Ankle.Med			L.Heel.Upper			L.Heel.Med			L.Heel.Lat			L.Toe.Lat			L.Toe.Med			L.Toe.Tip			Cervical.Spine			Back			
		X1	Y1	Z1	X2	Y2	Z2	X3	Y3	Z3	X4	Y4	Z4	X5	Y5	Z5	X6	Y6	Z6	X7	Y7	Z7	X8	Y8	Z8	X9	Y9	Z9	X10	Y10	Z10	X11	Y11	Z11	X12	Y12	Z12	X13	Y13	Z13	X14	Y14	Z14	X15	Y15	Z15	X16	Y16	Z16	X17	Y17	Z17	X18	Y18	Z18	X19	Y19	Z19	X20	Y20	Z20	X21	Y21	Z21	X22	Y22	Z22	X23	Y23	Z23	X24	Y24	Z24	X25	Y25	Z25	X26	Y26	Z26	X27	Y27	Z27	X28	Y28	Z28	X29	Y29	Z29	X30	Y30	Z30	X31	Y31	Z31	X32	Y32	Z32	X33	Y33	Z33	X34	Y34	Z34	X35	Y35	Z35	X36	Y36	Z36	X37	Y37	Z37	X38	Y38	Z38	X39	Y39	Z39	X40	Y40	Z40	X41	Y41	Z41	X42	Y42	Z42	X43	Y43	Z43	X44	Y44	Z44	X45	Y45	Z45	X46	Y46	Z46	X47	Y47	Z47	X48	Y48	Z48	X49	Y49	Z49	X50	Y50	Z50	X51	Y51	Z51	

373	1.55	528.18	1276.7	232.31	397.42	1507.8	401.08	409.55	1490.6	50.696	424.06	1831.4	212.34	500.25	996.84	359.27	491.73	1011	110.27	286.58	1030.4	273	291.63	1038.3	191.94	421.35	917.35	430.34	367.38	931.17	54.208	413.14	1089.6	407.14	394.53	1093.3	70.55	267.39	992.82	230.13	514.53	672.35	422.2	612.55	623.88	382.47	547.55	588.73	405.87	580.76	728.44	403.51	591.21	534.27	394.03	572.43	522.03	266.06	543.55	305.35	394.7	624.11	236.62	362.94	554.08	236.22	382.29	609.9	305.76	383.63	584.1	120.97	368	613	137.1	281.34	531.23	79.263	304.7	549.36	51.655	276.21	537.49	46.959	339.01	699.38	62.807	405.46	746.8	74.388	294.95	799.48	103.09	348.54	323.23	705.53	72.349	389.57	598.9	80.09	319.31	616.25	85.995	388.08	687.99	62.597	341.49	513.49	94.851	345.92	505.8	217.93	230.93	344.99	102.35	290.16	251.36	104.76	227.87	267.68	111.57	293.15	327.44	94.814	248.83	104.03	131.5	254.98	114.41	222.88	173.23	74.958	175.71	178.99	49.565	209.1	176.9	47.799	147.52	360.53	42.005	108.67	391.66	46.099	225.53	448.87	54.863	175.87	353.57	1552.7	227.54	271.52	1297.6	207.76
374	1.5542	533.3	1275.9	232.63	402.39	1506.9	401.38	414.98	1489.9	50.991	429.2	1830.6	212.68	505.31	996	359.34	496.69	1010.2	110.36	291.65	1029.7	273.14	296.71	1037.6	192.1	426.37	916.55	430.49	372.14	930.66	54.283	418.16	1088.8	407.29	399.58	1092.6	70.666	272.46	992.15	230.25	518.95	671.34	422.37	617	622.84	382.76	551.96	587.71	406.05	585.22	727.41	403.76	596.16	533.61	394.27	577.31	520.95	266.3	553.7	303.77	395.08	635.78	237.03	363.26	565.87	234.93	382.66	619.97	305.81	383.97	598.69	120.47	368.38	627.06	137.2	281.62	546.72	77.527	305.2	565.38	50.304	276.7	553.7	45.439	339.53	715.32	64.936	405.65	762.28	77.439	295.07	814.37	107.37	348.51	326.72	705.54	72.316	392.39	598.5	80.3	322.23	616.21	86.056	391.43	687.59	62.814	343.65	513.29	94.885	348.01	505.6	217.94	232.23	345.32	102.38	291.03	251.41	104.77	228.83	268.03	111.59	294.37	327.48	94.815	248.99	104.17	131.6	255.13	114.58	222.99	173.3	75.093	175.81	179.05	49.66	209.17	176.96	47.96	147.59	360.57	42.008	108.7	391.74	45.963	225.58	448.96	54.662	175.89	358.78	1551.9	227.79	276.68	1296.9	207.83
375	1.5583	538.44	1275	232.97	407.37	1506	401.7	420.41	1489.2	51.301	434.33	1829.8	213.04	510.39	995.15	359.42	501.66	1009.4	110.46	296.74	1029	273.28	301.81	1036.9	192.25	431.42	915.73	430.63	376.91	930.13	54.358	423.2	1087.9	407.44	404.67	1091.9	70.789	277.55	991.45	230.37	523.34	670.29	422.55	621.42	621.75	383.08	556.33	586.65	406.26	589.66	726.34	404.02	601.06	532.9	394.54	582.15	519.82	266.57	563.77	302.27	395.47	647.3	237.54	363.55	577.55	233.75	383.03	629.93	305.93	384.29	613.11	120.14	368.73	640.92	137.46	281.88	562.06	75.978	305.68	581.23	49.153	277.17	569.75	44.126	340.02	731.03	67.254	405.8	777.51	80.653	295.13	828.98	111.8	348.43	330.23	705.53	72.293	395.24	598.1	80.509	325.18	616.17	86.125	394.8	687.18	63.03	345.85	513.08	94.924	350.14	505.39	217.97	233.57	345.65	102.41	291.91	251.47	104.79	229.81	268.39	111.62	295.62	327.52	94.821	249.16	104.31	131.7	255.28	114.76	223.12	173.37	75.233	175.92	179.11	49.76	209.26	177.02	48.125	147.67	360.61	42.011	108.73	391.83	45.828	225.62	449.04	54.456	175.91	363.99	1551.1	228.05	281.86	1296.1	207.91
376	1.5625	543.59	1274.2	233.32	412.36	1505.2	402.04	425.85	1488.4	51.625	439.47	1829	213.41	515.49	994.29	359.5	506.66	1008.6	110.57	301.85	1028.2	273.43	306.93	1036.2	192.41	436.5	914.9	430.77	381.71	929.58	54.434	428.25	1087	407.6	409.78	1091.2	70.92	282.66	990.72	230.48	527.71	669.21	422.75	625.81	620.61	383.42	560.65	585.56	406.5	594.09	725.21	404.3	605.91	532.15	394.83	586.94	518.65	266.85	573.75	300.84	395.87	658.67	238.13	363.82	589.13	232.69	383.41	639.76	306.1	384.6	627.35	119.97	369.06	654.57	137.85	282.12	577.23	74.607	306.15	596.89	48.192	277.62	585.62	43.009	340.5	746.49	69.742	405.92	792.45	84.015	295.15	843.3	116.36	348.28	333.77	705.51	72.284	398.11	597.68	80.716	328.16	616.11	86.203	398.19	686.76	63.244	348.09	512.87	94.967	352.32	505.17	218	234.94	345.99	102.44	292.83	251.52	104.81	230.82	268.75	111.64	296.9	327.57	94.831	249.33	104.47	131.8	255.43	114.96	223.26	173.44	75.381	176.03	179.17	49.869	209.34	177.08	48.296	147.75	360.65	42.014	108.76	391.91	45.694	225.66	449.13	54.247	175.92	369.21	1550.3	228.34	287.04	1295.4	208.01
377	1.5667	548.76	1273.3	233.68	417.36	1504.2	402.39	431.29	1487.6	51.965	444.61	1828.2	213.79	520.62	993.41	359.59	511.67	1007.8	110.69	306.98	1027.5	273.57	312.06	1035.5	192.56	441.62	914.04	430.92	386.54	929.01	54.512	433.32	1086.1	407.76	414.91	1090.5	71.06	287.79	989.97	230.61	532.06	668.11	422.96	630.19	619.42	383.79	564.96	584.43	406.75	598.51	724.06	404.6	610.73	531.37	395.16	591.69	517.45	267.15	583.64	299.5	396.28	669.88	238.79	364.07	600.57	231.73	383.78	649.47	306.32	384.9	641.38	119.95	369.35	667.98	138.38	282.33	592.2	73.404	306.6	612.32	47.41	278.04	601.29	42.075	340.96	761.69	72.383	406	807.1	87.506	295.12	857.31	121.02	348.08	337.34	705.48	72.29	401.01	597.26	80.921	331.17	616.04	86.29	401.61	686.33	63.455	350.37	512.66	95.015	354.55	504.95	218.03	236.35	346.35	102.48	293.76	251.58	104.83	231.86	269.13	111.67	298.21	327.61	94.846	249.51	104.63	131.9	255.59	115.18	223.41	173.52	75.537	176.14	179.24	49.988	209.43	177.15	48.476	147.84	360.69	42.015	108.8	392	45.561	225.7	449.22	54.031	175.94	374.44	1549.5	228.64	292.24	1294.6	208.12
378	1.5708	553.95	1272.4	234.05	422.37	1503.3	402.76	436.74	1486.9	52.32	449.76	1827.3	214.19	525.77	992.53	359.7	516.7	1007	110.81	312.13	1026.7	273.73	317.22	1034.7	192.73	446.76	913.18	431.07	391.38	928.42	54.591	438.4	1085.1	407.92	420.06	1089.7	71.208	292.94	989.2	230.74	536.42	666.99	423.19	634.56	618.2	384.18	569.26	583.27	407.04	602.94	722.87	404.9	615.53	530.56	395.5	596.41	516.22	267.48	593.43	298.23	396.69	680.91	239.51	364.29	611.86	230.88	384.14	659.05	306.58	385.18	655.19	120.05	369.62	681.15	139.02	282.52	606.93	72.358	307.02	627.51	46.793	278.42	616.72	41.311	341.39	776.59	75.154	406.04	821.43	91.105	295.03	870.99	125.78	347.81	340.92	705.43	72.315	403.95	596.83	81.123	334.22	615.97	86.388	405.06	685.88	63.663	352.71	512.44	95.068	356.83	504.71	218.08	237.8	346.71	102.52	294.73	251.65	104.86	232.93	269.52	111.71	299.56	327.66	94.867	249.7	104.8	132	255.75	115.41	223.56	173.6	75.705	176.26	179.31	50.121	209.53	177.21	48.666	147.93	360.72	42.014	108.84	392.09	45.43	225.73	449.31	53.81	175.95	379.67	1548.7	228.96	297.45	1293.8	208.23
379	1.575	559.15	1271.5	234.44	427.39	1502.4	403.15	442.2	1486.1	52.69	454.9	1826.5	214.6	530.95	991.64	359.8	521.74	1006.1	110.94	317.29	1025.9	273.88	322.4	1034	192.9	451.94	912.3	431.22	396.25	927.81	54.673	443.51	1084.2	408.09	425.24	1089	71.365	298.11	988.4	230.87	540.79	665.85	423.44	638.93	616.96	384.58	573.56	582.1	407.34	607.38	721.66	405.21	620.32	529.73	395.87	601.1	514.97	267.83	603.11	297.05	397.1	691.76	240.29	364.48	622.99	230.12	384.5	668.49	306.87	385.44	668.75	120.27	369.84	694.05	139.76	282.67	621.41	71.456	307.42	642.42	46.325	278.78	631.89	40.699	341.8	791.18	78.03	406.03	835.41	94.789	294.89	884.32	130.59	347.5	344.54	705.36	72.362	406.92	596.39	81.322	337.31	615.88	86.497	408.54	685.43	63.867	355.09	512.21	95.126	359.18	504.47	218.13	239.28	347.08	102.56	295.73	251.71	104.9	234.03	269.91	111.75	300.94	327.7	94.893	249.9	104.98	132.11	255.92	115.66	223.72	173.69	75.888	176.38	179.38	50.271	209.63	177.28	48.869	148.03	360.76	42.012	108.88	392.19	45.299	225.76	449.41	53.581	175.97	384.92	1547.8	229.3	302.68	1293	208.36
380	1.5792	564.37	1270.6	234.84	432.42	1501.4	403.56	447.66	1485.3	53.076	460.05	1825.6	215.03	536.15	990.74	359.92	526.81	1005.3	111.07	322.47	1025.1	274.05	327.59	1033.2	193.07	457.16	911.4	431.37	401.13	927.19	54.759	448.63	1083.2	408.26	430.43	1088.2	71.531	303.29	987.57	231.02	545.18	664.71	423.71	643.32	615.7	385	577.88	580.92	407.67	611.85	720.45	405.53	625.1	528.88	396.26	605.78	513.7	268.21	612.66	295.94	397.5	702.4	241.1	364.65	633.94	229.45	384.84	677.78	307.19	385.69	682.05	120.59	370.03	706.65	140.58	282.8	635.6	70.684	307.79	657.04	45.991	279.09	646.78	40.225	342.16	805.42	80.984	405.98	849.04	98.53	294.7	897.28	135.43	347.12	348.18	705.27	72.433	409.93	595.94	81.517	340.43	615.78	86.617	412.05	684.97	64.068	357.53	511.98	95.19	361.59	504.22	218.19	240.82	347.46	102.6	296.76	251.79	104.94	235.17	270.32	111.79	302.36	327.75	94.925	250.11	105.17	132.22	256.11	115.93	223.88	173.78	76.09	176.51	179.46	50.442	209.74	177.34	49.09	148.13	360.81	42.007	108.92	392.29	45.168	225.79	449.51	53.345	175.98	390.16	1547	229.66	307.92	1292.2	208.5
381	1.5833	569.61	1269.7	235.26	437.45	1500.5	403.99	453.12	1484.5	53.478	465.2	1824.8	215.47	541.38	989.84	360.05	531.9	1004.4	111.22	327.66	1024.2	274.22	332.8	1032.4	193.26	462.4	910.49	431.54	406.03	926.54	54.848	453.77	1082.2	408.44	435.65	1087.5	71.707	308.5	986.73	231.17	549.61	663.57	423.99	647.74	614.44	385.42	582.23	579.74	408.02	616.35	719.22	405.85	629.89	528.03	396.67	610.46	512.43	268.6	622.07	294.91	397.9	712.83	241.94	364.8	644.69	228.87	385.17	686.93	307.53	385.91	695.05	121	370.19	718.95	141.47	282.89	649.48	70.027	308.13	671.32	45.771	279.38	661.34	39.869	342.5	819.31	83.987	405.88	862.28	102.3	294.45	909.86	140.27	346.7	351.85	705.16	72.528	412.98	595.49	81.709	343.61	615.67	86.747	415.6	684.5	64.265	360.03	511.74	95.258	364.07	503.96	218.26	242.4	347.85	102.65	297.82	251.86	104.98	236.34	270.74	111.84	303.83	327.79	94.964	250.33	105.38	132.32	256.31	116.22	224.03	173.88	76.315	176.63	179.55	50.638	209.84	177.42	49.332	148.23	360.85	42	108.97	392.39	45.039	225.82	449.62	53.1	175.99	395.42	1546.1	230.04	313.17	1291.3	208.65
382	1.5875	574.86	1268.8	235.68	442.5	1499.5	404.44	458.6	1483.7	53.896	470.34	1823.9	215.92	546.64	988.94	360.18	537	1003.5	111.37	332.87	1023.3	274.41	338.03	1031.5	193.46	467.69	909.58	431.71	410.95	925.89	54.942	458.94	1081.3	408.63	440.88	1086.7	71.894	313.72	985.86	231.34	554.08	662.43	424.29	652.2	613.18	385.85	586.62	578.56	408.38	620.89	718.01	406.18	634.71	527.17	397.09	615.14	511.17	269.01	631.34	293.96	398.29	723.04	242.79	364.92	655.23	228.37	385.47	695.91	307.87	386.11	707.73	121.47	370.3	730.92	142.4	282.95	663.01	69.469	308.43	685.25	45.649	279.62	675.56	39.615	342.79	832.81	87.007	405.73	875.13	106.06	294.15	922.05	145.07	346.22	355.55	705.04	72.649	416.09	595.02	81.897	346.83	615.55	86.887	419.18	684.01	64.457	362.6	511.5	95.332	366.63	503.69	218.34	244.03	348.25	102.71	298.93	251.94	105.03	237.56	271.17	111.89	305.35	327.84	95.009	250.56	105.61	132.43	256.53	116.52	224.18	173.99	76.568	176.76	179.64	50.866	209.95	177.49	49.6	148.34	360.89	41.99	109.02	392.5	44.911	225.84	449.73	52.847	176.01	400.68	1545.2	230.43	318.44	1290.5	208.81
